<svg data-v-fde0c5aa="" xmlns="http://www.w3.org/2000/svg" viewBox="0 0 300 300" class="iconAbove"><!----><defs data-v-fde0c5aa=""><linearGradient data-v-fde0c5aa="" gradientTransform="rotate(25)" id="dbb623be-f97d-477d-b929-7ca51346c3dc" x1="0%" y1="0%" x2="100%" y2="0%"><stop data-v-fde0c5aa="" offset="0%" stop-color="#21690F" stop-opacity="1"></stop><stop data-v-fde0c5aa="" offset="100%" stop-color="#88C848" stop-opacity="1"></stop></linearGradient></defs><rect data-v-fde0c5aa="" fill="url(#dbb623be-f97d-477d-b929-7ca51346c3dc)" x="0" y="0" width="300px" height="300px" class="logo-background-square"></rect><defs data-v-fde0c5aa=""><!----></defs><g data-v-fde0c5aa="" id="af432b22-003b-4541-9b5c-0f8b10327a2c" fill="#ffffff" transform="matrix(1.601379644140154,0,0,1.601379644140154,17.902192757808105,160.92165450393193)"><path d="M8.96 16.19L2.63 6.56L2.63 16.19L1.31 16.19L1.31 5.69L3.50 5.69L9.62 14.88L15.74 5.69L17.83 5.69L17.83 16.19L16.52 16.19L16.52 6.71L10.28 16.19L8.96 16.19ZM27.86 16.19L27.86 15.11L27.86 15.11Q27.84 15.19 27.55 15.52L27.55 15.52L27.55 15.52Q27.34 15.76 27.00 15.95L27.00 15.95L27.00 15.95Q26.66 16.14 26.09 16.25L26.09 16.25L26.09 16.25Q25.52 16.35 24.59 16.35L24.59 16.35L24.59 16.35Q23.35 16.35 22.48 16.23L22.48 16.23L22.48 16.23Q21.60 16.10 21.05 15.84L21.05 15.84L21.05 15.84Q20.49 15.57 20.24 15.16L20.24 15.16L20.24 15.16Q19.98 14.75 19.98 14.18L19.98 14.18L19.98 14.18Q19.98 13.59 20.12 13.18L20.12 13.18L20.12 13.18Q20.26 12.76 20.53 12.48L20.53 12.48L20.53 12.48Q20.80 12.20 21.18 12.04L21.18 12.04L21.18 12.04Q21.57 11.89 22.06 11.81L22.06 11.81L22.06 11.81Q22.54 11.72 23.13 11.70L23.13 11.70L23.13 11.70Q23.71 11.68 24.36 11.68L24.36 11.68L24.36 11.68Q25.30 11.68 25.93 11.76L25.93 11.76L25.93 11.76Q26.56 11.84 26.96 11.96L26.96 11.96L26.96 11.96Q27.36 12.08 27.56 12.22L27.56 12.22L27.56 12.22Q27.77 12.35 27.86 12.47L27.86 12.47L27.86 12.47Q27.86 11.70 27.79 11.16L27.79 11.16L27.79 11.16Q27.73 10.62 27.58 10.26L27.58 10.26L27.58 10.26Q27.43 9.90 27.20 9.68L27.20 9.68L27.20 9.68Q26.97 9.47 26.63 9.36L26.63 9.36L26.63 9.36Q26.29 9.25 25.84 9.22L25.84 9.22L25.84 9.22Q25.39 9.19 24.81 9.19L24.81 9.19L24.81 9.19Q23.91 9.19 23.31 9.23L23.31 9.23L23.31 9.23Q22.72 9.28 22.37 9.41L22.37 9.41L22.37 9.41Q22.02 9.54 21.88 9.77L21.88 9.77L21.88 9.77Q21.73 9.99 21.73 10.36L21.73 10.36L20.42 10.36L20.42 10.36Q20.42 9.74 20.64 9.31L20.64 9.31L20.64 9.31Q20.86 8.88 21.38 8.61L21.38 8.61L21.38 8.61Q21.90 8.34 22.74 8.22L22.74 8.22L22.74 8.22Q23.58 8.09 24.81 8.09L24.81 8.09L24.81 8.09Q26.01 8.09 26.84 8.29L26.84 8.29L26.84 8.29Q27.68 8.49 28.19 8.99L28.19 8.99L28.19 8.99Q28.71 9.49 28.94 10.33L28.94 10.33L28.94 10.33Q29.17 11.18 29.17 12.47L29.17 12.47L29.17 16.19L27.86 16.19ZM24.81 15.31L24.81 15.31L24.81 15.31Q25.68 15.31 26.26 15.23L26.26 15.23L26.26 15.23Q26.84 15.15 27.20 14.98L27.20 14.98L27.20 14.98Q27.56 14.82 27.71 14.57L27.71 14.57L27.71 14.57Q27.86 14.33 27.86 14L27.86 14L27.86 14Q27.86 13.67 27.68 13.44L27.68 13.44L27.68 13.44Q27.51 13.21 27.10 13.07L27.10 13.07L27.10 13.07Q26.69 12.93 26.02 12.86L26.02 12.86L26.02 12.86Q25.35 12.80 24.37 12.80L24.37 12.80L24.37 12.80Q23.39 12.80 22.78 12.83L22.78 12.83L22.78 12.83Q22.18 12.87 21.85 12.99L21.85 12.99L21.85 12.99Q21.52 13.11 21.41 13.35L21.41 13.35L21.41 13.35Q21.29 13.59 21.29 14L21.29 14L21.29 14Q21.29 14.41 21.41 14.67L21.41 14.67L21.41 14.67Q21.53 14.92 21.90 15.07L21.90 15.07L21.90 15.07Q22.27 15.21 22.97 15.26L22.97 15.26L22.97 15.26Q23.66 15.31 24.81 15.31ZM37.48 12.69L38.58 12.69L38.58 12.69Q38.58 13.69 38.41 14.37L38.41 14.37L38.41 14.37Q38.25 15.04 37.86 15.44L37.86 15.44L37.86 15.44Q37.47 15.85 36.85 16.02L36.85 16.02L36.85 16.02Q36.22 16.19 35.29 16.19L35.29 16.19L35.29 16.19Q34.40 16.19 33.79 16.05L33.79 16.05L33.79 16.05Q33.18 15.91 32.81 15.59L32.81 15.59L32.81 15.59Q32.43 15.26 32.27 14.71L32.27 14.71L32.27 14.71Q32.10 14.16 32.10 13.34L32.10 13.34L32.10 9.39L30.48 9.39L30.48 8.31L32.10 8.31L32.10 6.16L33.41 6.16L33.41 8.31L38.36 8.31L38.36 9.39L33.41 9.39L33.41 13.34L33.41 13.34Q33.41 14 33.51 14.36L33.51 14.36L33.51 14.36Q33.61 14.71 33.83 14.88L33.83 14.88L33.83 14.88Q34.05 15.04 34.41 15.07L34.41 15.07L34.41 15.07Q34.77 15.09 35.29 15.09L35.29 15.09L35.29 15.09Q35.70 15.09 36.02 15.08L36.02 15.08L36.02 15.08Q36.35 15.07 36.59 14.99L36.59 14.99L36.59 14.99Q36.83 14.92 37.00 14.78L37.00 14.78L37.00 14.78Q37.17 14.63 37.28 14.36L37.28 14.36L37.28 14.36Q37.39 14.10 37.43 13.69L37.43 13.69L37.43 13.69Q37.48 13.28 37.48 12.69L37.48 12.69ZM46.89 12.69L47.98 12.69L47.98 12.69Q47.98 13.69 47.82 14.37L47.82 14.37L47.82 14.37Q47.65 15.04 47.27 15.44L47.27 15.44L47.27 15.44Q46.88 15.85 46.25 16.02L46.25 16.02L46.25 16.02Q45.62 16.19 44.70 16.19L44.70 16.19L44.70 16.19Q43.80 16.19 43.20 16.05L43.20 16.05L43.20 16.05Q42.59 15.91 42.21 15.59L42.21 15.59L42.21 15.59Q41.84 15.26 41.67 14.71L41.67 14.71L41.67 14.71Q41.51 14.16 41.51 13.34L41.51 13.34L41.51 9.39L39.89 9.39L39.89 8.31L41.51 8.31L41.51 6.16L42.82 6.16L42.82 8.31L47.76 8.31L47.76 9.39L42.82 9.39L42.82 13.34L42.82 13.34Q42.82 14 42.92 14.36L42.92 14.36L42.92 14.36Q43.02 14.71 43.24 14.88L43.24 14.88L43.24 14.88Q43.46 15.04 43.81 15.07L43.81 15.07L43.81 15.07Q44.17 15.09 44.69 15.09L44.69 15.09L44.69 15.09Q45.10 15.09 45.43 15.08L45.43 15.08L45.43 15.08Q45.75 15.07 46.00 14.99L46.00 14.99L46.00 14.99Q46.24 14.92 46.41 14.78L46.41 14.78L46.41 14.78Q46.58 14.63 46.69 14.36L46.69 14.36L46.69 14.36Q46.79 14.10 46.84 13.69L46.84 13.69L46.84 13.69Q46.89 13.28 46.89 12.69L46.89 12.69ZM58.92 16.19L57.61 16.19L57.61 11.74L57.61 11.74Q57.61 11.03 57.50 10.54L57.50 10.54L57.50 10.54Q57.39 10.06 57.06 9.75L57.06 9.75L57.06 9.75Q56.73 9.45 56.13 9.32L56.13 9.32L56.13 9.32Q55.53 9.19 54.54 9.19L54.54 9.19L54.54 9.19Q53.48 9.19 52.80 9.34L52.80 9.34L52.80 9.34Q52.12 9.50 51.73 9.77L51.73 9.77L51.73 9.77Q51.34 10.05 51.19 10.44L51.19 10.44L51.19 10.44Q51.04 10.83 51.04 11.31L51.04 11.31L51.04 16.19L49.73 16.19L49.73 5.69L51.04 5.69L51.04 9.56L51.04 9.56Q51.18 9.24 51.43 9.00L51.43 9.00L51.43 9.00Q51.69 8.77 52.02 8.61L52.02 8.61L52.02 8.61Q52.35 8.44 52.73 8.34L52.73 8.34L52.73 8.34Q53.12 8.24 53.51 8.19L53.51 8.19L53.51 8.19Q53.90 8.13 54.28 8.11L54.28 8.11L54.28 8.11Q54.66 8.09 54.98 8.09L54.98 8.09L54.98 8.09Q55.86 8.09 56.49 8.20L56.49 8.20L56.49 8.20Q57.12 8.31 57.56 8.51L57.56 8.51L57.56 8.51Q58.00 8.72 58.27 9.03L58.27 9.03L58.27 9.03Q58.54 9.34 58.68 9.74L58.68 9.74L58.68 9.74Q58.83 10.15 58.88 10.65L58.88 10.65L58.88 10.65Q58.93 11.16 58.93 11.74L58.93 11.74L58.92 16.19ZM61.11 16.19L61.11 8.31L62.43 8.31L62.43 16.19L61.11 16.19ZM62.43 5.69L62.43 7L61.11 7L61.11 5.69L62.43 5.69ZM67.02 8.31L67.02 16.63L67.02 16.63Q67.02 17.13 66.95 17.53L66.95 17.53L66.95 17.53Q66.88 17.94 66.64 18.22L66.64 18.22L66.64 18.22Q66.39 18.50 65.91 18.66L65.91 18.66L65.91 18.66Q65.43 18.81 64.61 18.81L64.61 18.81L64.61 17.72L64.61 17.72Q64.94 17.72 65.15 17.67L65.15 17.67L65.15 17.67Q65.37 17.62 65.49 17.50L65.49 17.50L65.49 17.50Q65.61 17.38 65.66 17.17L65.66 17.17L65.66 17.17Q65.71 16.95 65.71 16.63L65.71 16.63L65.71 8.31L67.02 8.31ZM67.02 5.69L67.02 7L65.71 7L65.71 5.69L67.02 5.69ZM73.80 12.60L73.80 12.60L73.80 12.60Q74.57 12.60 75.11 12.62L75.11 12.62L75.11 12.62Q75.65 12.65 76.01 12.70L76.01 12.70L76.01 12.70Q76.38 12.76 76.59 12.85L76.59 12.85L76.59 12.85Q76.80 12.94 76.91 13.11L76.91 13.11L76.91 13.11Q77.02 13.29 77.05 13.46L77.05 13.46L77.05 13.46Q77.08 13.64 77.08 13.86L77.08 13.86L77.08 13.86Q77.08 14.11 77.05 14.31L77.05 14.31L77.05 14.31Q77.02 14.51 76.90 14.68L76.90 14.68L76.90 14.68Q76.79 14.84 76.56 14.96L76.56 14.96L76.56 14.96Q76.34 15.07 75.95 15.16L75.95 15.16L75.95 15.16Q75.56 15.24 74.98 15.27L74.98 15.27L74.98 15.27Q74.40 15.31 73.58 15.31L73.58 15.31L73.58 15.31Q72.68 15.31 72.09 15.26L72.09 15.26L72.09 15.26Q71.50 15.21 71.15 15.07L71.15 15.07L71.15 15.07Q70.80 14.92 70.66 14.67L70.66 14.67L70.66 14.67Q70.52 14.41 70.52 14L70.52 14L69.21 14L69.21 14Q69.21 14.62 69.43 15.05L69.43 15.05L69.43 15.05Q69.65 15.48 70.16 15.75L70.16 15.75L70.16 15.75Q70.68 16.02 71.51 16.15L71.51 16.15L71.51 16.15Q72.35 16.27 73.58 16.27L73.58 16.27L73.58 16.27Q74.57 16.27 75.31 16.21L75.31 16.21L75.31 16.21Q76.05 16.15 76.58 16.03L76.58 16.03L76.58 16.03Q77.12 15.91 77.47 15.72L77.47 15.72L77.47 15.72Q77.82 15.52 78.03 15.25L78.03 15.25L78.03 15.25Q78.23 14.98 78.31 14.63L78.31 14.63L78.31 14.63Q78.39 14.28 78.39 13.84L78.39 13.84L78.39 13.84Q78.39 13.39 78.31 13.05L78.31 13.05L78.31 13.05Q78.23 12.71 78.03 12.47L78.03 12.47L78.03 12.47Q77.83 12.22 77.49 12.00L77.49 12.00L77.49 12.00Q77.16 11.79 76.64 11.69L76.64 11.69L76.64 11.69Q76.13 11.59 75.43 11.55L75.43 11.55L75.43 11.55Q74.73 11.50 73.80 11.50L73.80 11.50L73.80 11.50Q73.04 11.50 72.50 11.50L72.50 11.50L72.50 11.50Q71.96 11.50 71.59 11.46L71.59 11.46L71.59 11.46Q71.22 11.42 71.01 11.35L71.01 11.35L71.01 11.35Q70.80 11.27 70.69 11.13L70.69 11.13L70.69 11.13Q70.58 10.99 70.55 10.76L70.55 10.76L70.55 10.76Q70.52 10.54 70.52 10.31L70.52 10.31L70.52 10.31Q70.52 9.91 70.70 9.69L70.70 9.69L70.70 9.69Q70.88 9.46 71.29 9.35L71.29 9.35L71.29 9.35Q71.70 9.24 72.37 9.21L72.37 9.21L72.37 9.21Q73.04 9.19 74.02 9.19L74.02 9.19L74.02 9.19Q74.92 9.19 75.51 9.24L75.51 9.24L75.51 9.24Q76.10 9.29 76.45 9.42L76.45 9.42L76.45 9.42Q76.80 9.56 76.94 9.79L76.94 9.79L76.94 9.79Q77.08 10.02 77.08 10.39L77.08 10.39L78.39 10.39L78.39 10.39Q78.39 9.80 78.20 9.37L78.20 9.37L78.20 9.37Q78.00 8.93 77.50 8.65L77.50 8.65L77.50 8.65Q77.01 8.37 76.16 8.23L76.16 8.23L76.16 8.23Q75.32 8.09 74.02 8.09L74.02 8.09L74.02 8.09Q72.71 8.09 71.79 8.21L71.79 8.21L71.79 8.21Q70.88 8.33 70.30 8.59L70.30 8.59L70.30 8.59Q69.73 8.85 69.47 9.27L69.47 9.27L69.47 9.27Q69.21 9.69 69.21 10.31L69.21 10.31L69.21 10.31Q69.21 10.76 69.29 11.15L69.29 11.15L69.29 11.15Q69.37 11.53 69.57 11.80L69.57 11.80L69.57 11.80Q69.77 12.06 70.11 12.22L70.11 12.22L70.11 12.22Q70.44 12.37 70.95 12.46L70.95 12.46L70.95 12.46Q71.46 12.54 72.17 12.57L72.17 12.57L72.17 12.57Q72.87 12.60 73.80 12.60ZM95.89 8.97L94.58 8.97L94.58 8.97Q94.58 8.15 94.40 7.67L94.40 7.67L94.40 7.67Q94.22 7.19 93.81 6.95L93.81 6.95L93.81 6.95Q93.40 6.70 92.73 6.63L92.73 6.63L92.73 6.63Q92.07 6.56 91.08 6.56L91.08 6.56L88.01 6.56L88.01 6.56Q87.14 6.56 86.54 6.61L86.54 6.61L86.54 6.61Q85.94 6.67 85.55 6.82L85.55 6.82L85.55 6.82Q85.16 6.98 84.95 7.27L84.95 7.27L84.95 7.27Q84.74 7.57 84.64 8.05L84.64 8.05L84.64 8.05Q84.55 8.54 84.53 9.25L84.53 9.25L84.53 9.25Q84.52 9.95 84.52 10.94L84.52 10.94L84.52 10.94Q84.52 11.92 84.54 12.63L84.54 12.63L84.54 12.63Q84.55 13.34 84.65 13.82L84.65 13.82L84.65 13.82Q84.75 14.31 84.95 14.60L84.95 14.60L84.95 14.60Q85.16 14.90 85.55 15.05L85.55 15.05L85.55 15.05Q85.94 15.21 86.54 15.26L86.54 15.26L86.54 15.26Q87.14 15.31 88.01 15.31L88.01 15.31L91.08 15.31L91.08 15.31Q91.85 15.31 92.40 15.27L92.40 15.27L92.40 15.27Q92.96 15.23 93.34 15.12L93.34 15.12L93.34 15.12Q93.73 15.01 93.97 14.82L93.97 14.82L93.97 14.82Q94.21 14.63 94.35 14.34L94.35 14.34L94.35 14.34Q94.48 14.05 94.53 13.64L94.53 13.64L94.53 13.64Q94.58 13.23 94.58 12.69L94.58 12.69L95.89 12.69L95.89 12.69Q95.89 13.34 95.81 13.87L95.81 13.87L95.81 13.87Q95.72 14.40 95.52 14.82L95.52 14.82L95.52 14.82Q95.31 15.23 94.96 15.53L94.96 15.53L94.96 15.53Q94.61 15.83 94.08 16.03L94.08 16.03L94.08 16.03Q93.54 16.22 92.80 16.31L92.80 16.31L92.80 16.31Q92.07 16.41 91.08 16.41L91.08 16.41L88.01 16.41L88.01 16.41Q86.81 16.41 85.99 16.26L85.99 16.26L85.99 16.26Q85.16 16.11 84.63 15.81L84.63 15.81L84.63 15.81Q84.10 15.52 83.81 15.07L83.81 15.07L83.81 15.07Q83.51 14.62 83.38 14.01L83.38 14.01L83.38 14.01Q83.25 13.40 83.23 12.63L83.23 12.63L83.23 12.63Q83.21 11.87 83.21 10.94L83.21 10.94L83.21 10.94Q83.21 10.01 83.23 9.24L83.23 9.24L83.23 9.24Q83.25 8.48 83.38 7.87L83.38 7.87L83.38 7.87Q83.51 7.26 83.81 6.81L83.81 6.81L83.81 6.81Q84.10 6.36 84.63 6.06L84.63 6.06L84.63 6.06Q85.16 5.76 85.99 5.62L85.99 5.62L85.99 5.62Q86.81 5.47 88.01 5.47L88.01 5.47L91.08 5.47L91.08 5.47Q92.07 5.47 92.80 5.56L92.80 5.56L92.80 5.56Q93.54 5.65 94.08 5.84L94.08 5.84L94.08 5.84Q94.61 6.03 94.96 6.32L94.96 6.32L94.96 6.32Q95.31 6.60 95.52 6.99L95.52 6.99L95.52 6.99Q95.72 7.38 95.81 7.88L95.81 7.88L95.81 7.88Q95.89 8.37 95.89 8.97L95.89 8.97ZM98.08 16.19L98.08 5.69L99.39 5.69L99.39 16.19L98.08 16.19ZM109.42 16.19L109.42 15.11L109.42 15.11Q109.40 15.19 109.11 15.52L109.11 15.52L109.11 15.52Q108.90 15.76 108.56 15.95L108.56 15.95L108.56 15.95Q108.22 16.14 107.65 16.25L107.65 16.25L107.65 16.25Q107.08 16.35 106.15 16.35L106.15 16.35L106.15 16.35Q104.91 16.35 104.04 16.23L104.04 16.23L104.04 16.23Q103.16 16.10 102.61 15.84L102.61 15.84L102.61 15.84Q102.05 15.57 101.80 15.16L101.80 15.16L101.80 15.16Q101.54 14.75 101.54 14.18L101.54 14.18L101.54 14.18Q101.54 13.59 101.68 13.18L101.68 13.18L101.68 13.18Q101.82 12.76 102.09 12.48L102.09 12.48L102.09 12.48Q102.36 12.20 102.74 12.04L102.74 12.04L102.74 12.04Q103.13 11.89 103.62 11.81L103.62 11.81L103.62 11.81Q104.10 11.72 104.69 11.70L104.69 11.70L104.69 11.70Q105.27 11.68 105.92 11.68L105.92 11.68L105.92 11.68Q106.86 11.68 107.49 11.76L107.49 11.76L107.49 11.76Q108.12 11.84 108.52 11.96L108.52 11.96L108.52 11.96Q108.92 12.08 109.12 12.22L109.12 12.22L109.12 12.22Q109.33 12.35 109.42 12.47L109.42 12.47L109.42 12.47Q109.42 11.70 109.35 11.16L109.35 11.16L109.35 11.16Q109.29 10.62 109.14 10.26L109.14 10.26L109.14 10.26Q108.99 9.90 108.76 9.68L108.76 9.68L108.76 9.68Q108.53 9.47 108.19 9.36L108.19 9.36L108.19 9.36Q107.85 9.25 107.40 9.22L107.40 9.22L107.40 9.22Q106.95 9.19 106.37 9.19L106.37 9.19L106.37 9.19Q105.46 9.19 104.87 9.23L104.87 9.23L104.87 9.23Q104.28 9.28 103.93 9.41L103.93 9.41L103.93 9.41Q103.58 9.54 103.43 9.77L103.43 9.77L103.43 9.77Q103.29 9.99 103.29 10.36L103.29 10.36L101.98 10.36L101.98 10.36Q101.98 9.74 102.20 9.31L102.20 9.31L102.20 9.31Q102.42 8.88 102.94 8.61L102.94 8.61L102.94 8.61Q103.46 8.34 104.30 8.22L104.30 8.22L104.30 8.22Q105.14 8.09 106.37 8.09L106.37 8.09L106.37 8.09Q107.57 8.09 108.40 8.29L108.40 8.29L108.40 8.29Q109.24 8.49 109.75 8.99L109.75 8.99L109.75 8.99Q110.27 9.49 110.50 10.33L110.50 10.33L110.50 10.33Q110.73 11.18 110.73 12.47L110.73 12.47L110.73 16.19L109.42 16.19ZM106.37 15.31L106.37 15.31L106.37 15.31Q107.24 15.31 107.82 15.23L107.82 15.23L107.82 15.23Q108.40 15.15 108.76 14.98L108.76 14.98L108.76 14.98Q109.12 14.82 109.27 14.57L109.27 14.57L109.27 14.57Q109.42 14.33 109.42 14L109.42 14L109.42 14Q109.42 13.67 109.24 13.44L109.24 13.44L109.24 13.44Q109.07 13.21 108.66 13.07L108.66 13.07L108.66 13.07Q108.25 12.93 107.58 12.86L107.58 12.86L107.58 12.86Q106.91 12.80 105.93 12.80L105.93 12.80L105.93 12.80Q104.95 12.80 104.34 12.83L104.34 12.83L104.34 12.83Q103.74 12.87 103.41 12.99L103.41 12.99L103.41 12.99Q103.08 13.11 102.97 13.35L102.97 13.35L102.97 13.35Q102.85 13.59 102.85 14L102.85 14L102.85 14Q102.85 14.41 102.97 14.67L102.97 14.67L102.97 14.67Q103.09 14.92 103.46 15.07L103.46 15.07L103.46 15.07Q103.83 15.21 104.52 15.26L104.52 15.26L104.52 15.26Q105.22 15.31 106.37 15.31ZM117.07 12.60L117.07 12.60L117.07 12.60Q117.84 12.60 118.38 12.62L118.38 12.62L118.38 12.62Q118.92 12.65 119.28 12.70L119.28 12.70L119.28 12.70Q119.65 12.76 119.86 12.85L119.86 12.85L119.86 12.85Q120.07 12.94 120.18 13.11L120.18 13.11L120.18 13.11Q120.29 13.29 120.32 13.46L120.32 13.46L120.32 13.46Q120.35 13.64 120.35 13.86L120.35 13.86L120.35 13.86Q120.35 14.11 120.32 14.31L120.32 14.31L120.32 14.31Q120.29 14.51 120.18 14.68L120.18 14.68L120.18 14.68Q120.06 14.84 119.83 14.96L119.83 14.96L119.83 14.96Q119.61 15.07 119.22 15.16L119.22 15.16L119.22 15.16Q118.83 15.24 118.25 15.27L118.25 15.27L118.25 15.27Q117.67 15.31 116.85 15.31L116.85 15.31L116.85 15.31Q115.95 15.31 115.36 15.26L115.36 15.26L115.36 15.26Q114.77 15.21 114.42 15.07L114.42 15.07L114.42 15.07Q114.07 14.92 113.93 14.67L113.93 14.67L113.93 14.67Q113.79 14.41 113.79 14L113.79 14L112.48 14L112.48 14Q112.48 14.62 112.70 15.05L112.70 15.05L112.70 15.05Q112.92 15.48 113.44 15.75L113.44 15.75L113.44 15.75Q113.95 16.02 114.79 16.15L114.79 16.15L114.79 16.15Q115.62 16.27 116.85 16.27L116.85 16.27L116.85 16.27Q117.84 16.27 118.58 16.21L118.58 16.21L118.58 16.21Q119.32 16.15 119.85 16.03L119.85 16.03L119.85 16.03Q120.39 15.91 120.74 15.72L120.74 15.72L120.74 15.72Q121.09 15.52 121.30 15.25L121.30 15.25L121.30 15.25Q121.50 14.98 121.58 14.63L121.58 14.63L121.58 14.63Q121.67 14.28 121.67 13.84L121.67 13.84L121.67 13.84Q121.67 13.39 121.58 13.05L121.58 13.05L121.58 13.05Q121.50 12.71 121.30 12.47L121.30 12.47L121.30 12.47Q121.10 12.22 120.76 12.00L120.76 12.00L120.76 12.00Q120.43 11.79 119.92 11.69L119.92 11.69L119.92 11.69Q119.40 11.59 118.70 11.55L118.70 11.55L118.70 11.55Q118.00 11.50 117.07 11.50L117.07 11.50L117.07 11.50Q116.31 11.50 115.77 11.50L115.77 11.50L115.77 11.50Q115.23 11.50 114.86 11.46L114.86 11.46L114.86 11.46Q114.50 11.42 114.28 11.35L114.28 11.35L114.28 11.35Q114.07 11.27 113.96 11.13L113.96 11.13L113.96 11.13Q113.85 10.99 113.82 10.76L113.82 10.76L113.82 10.76Q113.79 10.54 113.79 10.31L113.79 10.31L113.79 10.31Q113.79 9.91 113.97 9.69L113.97 9.69L113.97 9.69Q114.15 9.46 114.56 9.35L114.56 9.35L114.56 9.35Q114.97 9.24 115.64 9.21L115.64 9.21L115.64 9.21Q116.31 9.19 117.29 9.19L117.29 9.19L117.29 9.19Q118.19 9.19 118.78 9.24L118.78 9.24L118.78 9.24Q119.38 9.29 119.72 9.42L119.72 9.42L119.72 9.42Q120.07 9.56 120.21 9.79L120.21 9.79L120.21 9.79Q120.35 10.02 120.35 10.39L120.35 10.39L121.67 10.39L121.67 10.39Q121.67 9.80 121.47 9.37L121.47 9.37L121.47 9.37Q121.27 8.93 120.77 8.65L120.77 8.65L120.77 8.65Q120.28 8.37 119.43 8.23L119.43 8.23L119.43 8.23Q118.59 8.09 117.29 8.09L117.29 8.09L117.29 8.09Q115.98 8.09 115.06 8.21L115.06 8.21L115.06 8.21Q114.15 8.33 113.57 8.59L113.57 8.59L113.57 8.59Q113.00 8.85 112.74 9.27L112.74 9.27L112.74 9.27Q112.48 9.69 112.48 10.31L112.48 10.31L112.48 10.31Q112.48 10.76 112.56 11.15L112.56 11.15L112.56 11.15Q112.64 11.53 112.84 11.80L112.84 11.80L112.84 11.80Q113.04 12.06 113.38 12.22L113.38 12.22L113.38 12.22Q113.72 12.37 114.23 12.46L114.23 12.46L114.23 12.46Q114.73 12.54 115.44 12.57L115.44 12.57L115.44 12.57Q116.14 12.60 117.07 12.60ZM128.01 16.34L128.01 16.34L128.01 16.34Q126.70 16.34 125.78 16.16L125.78 16.16L125.78 16.16Q124.87 15.98 124.29 15.53L124.29 15.53L124.29 15.53Q123.72 15.09 123.46 14.34L123.46 14.34L123.46 14.34Q123.20 13.60 123.20 12.47L123.20 12.47L123.20 12.47Q123.20 11.18 123.46 10.33L123.46 10.33L123.46 10.33Q123.72 9.49 124.29 8.99L124.29 8.99L124.29 8.99Q124.87 8.49 125.78 8.29L125.78 8.29L125.78 8.29Q126.70 8.09 128.01 8.09L128.01 8.09L128.01 8.09Q128.95 8.09 129.63 8.23L129.63 8.23L129.63 8.23Q130.32 8.37 130.81 8.63L130.81 8.63L130.81 8.63Q131.30 8.89 131.60 9.26L131.60 9.26L131.60 9.26Q131.91 9.63 132.08 10.03L132.08 10.03L132.08 10.03Q132.25 10.44 132.32 10.99L132.32 10.99L132.32 10.99Q132.38 11.53 132.38 12.14L132.38 12.14L132.28 12.58L124.51 12.58L124.51 12.58Q124.51 13.48 124.69 14.06L124.69 14.06L124.69 14.06Q124.87 14.64 125.28 14.90L125.28 14.90L125.28 14.90Q125.69 15.17 126.36 15.24L126.36 15.24L126.36 15.24Q127.03 15.31 128.01 15.31L128.01 15.31L128.01 15.31Q128.91 15.31 129.50 15.26L129.50 15.26L129.50 15.26Q130.09 15.21 130.44 15.07L130.44 15.07L130.44 15.07Q130.79 14.92 130.93 14.67L130.93 14.67L130.93 14.67Q131.07 14.41 131.07 14L131.07 14L132.38 14L132.38 14Q132.38 14.64 132.16 15.08L132.16 15.08L132.16 15.08Q131.94 15.53 131.43 15.81L131.43 15.81L131.43 15.81Q130.92 16.08 130.08 16.21L130.08 16.21L130.08 16.21Q129.24 16.34 128.01 16.34ZM128.01 9.19L128.01 9.19L128.01 9.19Q127.35 9.19 126.84 9.21L126.84 9.21L126.84 9.21Q126.32 9.24 125.94 9.33L125.94 9.33L125.94 9.33Q125.55 9.43 125.28 9.60L125.28 9.60L125.28 9.60Q125.00 9.78 124.83 10.01L124.83 10.01L124.83 10.01Q124.67 10.25 124.59 10.67L124.59 10.67L124.59 10.67Q124.51 11.10 124.51 11.70L124.51 11.70L131.07 11.70L131.07 11.70Q131.07 10.90 130.90 10.45L130.90 10.45L130.90 10.45Q130.73 9.99 130.36 9.70L130.36 9.70L130.36 9.70Q129.99 9.41 129.41 9.30L129.41 9.30L129.41 9.30Q128.83 9.19 128.01 9.19ZM143.32 16.19L142.01 16.19L142.01 11.81L142.01 11.81Q142.01 11.08 141.90 10.58L141.90 10.58L141.90 10.58Q141.79 10.08 141.46 9.77L141.46 9.77L141.46 9.77Q141.13 9.46 140.53 9.32L140.53 9.32L140.53 9.32Q139.93 9.19 138.95 9.19L138.95 9.19L138.95 9.19Q137.88 9.19 137.20 9.34L137.20 9.34L137.20 9.34Q136.52 9.50 136.13 9.79L136.13 9.79L136.13 9.79Q135.74 10.08 135.59 10.48L135.59 10.48L135.59 10.48Q135.45 10.88 135.45 11.38L135.45 11.38L135.45 16.19L134.13 16.19L134.13 8.31L135.45 8.31L135.45 9.63L135.45 9.63Q135.59 9.29 135.86 9.05L135.86 9.05L135.86 9.05Q136.12 8.80 136.46 8.63L136.46 8.63L136.46 8.63Q136.79 8.46 137.18 8.36L137.18 8.36L137.18 8.36Q137.57 8.25 137.96 8.19L137.96 8.19L137.96 8.19Q138.35 8.13 138.72 8.11L138.72 8.11L138.72 8.11Q139.08 8.09 139.38 8.09L139.38 8.09L139.38 8.09Q140.26 8.09 140.89 8.20L140.89 8.20L140.89 8.20Q141.52 8.31 141.97 8.52L141.97 8.52L141.97 8.52Q142.41 8.74 142.67 9.05L142.67 9.05L142.67 9.05Q142.94 9.37 143.09 9.78L143.09 9.78L143.09 9.78Q143.23 10.19 143.28 10.70L143.28 10.70L143.28 10.70Q143.33 11.21 143.33 11.81L143.33 11.81L143.32 16.19ZM149.67 16.34L149.67 16.34L149.67 16.34Q148.36 16.34 147.44 16.16L147.44 16.16L147.44 16.16Q146.53 15.98 145.95 15.53L145.95 15.53L145.95 15.53Q145.38 15.09 145.12 14.34L145.12 14.34L145.12 14.34Q144.86 13.60 144.86 12.47L144.86 12.47L144.86 12.47Q144.86 11.18 145.12 10.33L145.12 10.33L145.12 10.33Q145.38 9.49 145.95 8.99L145.95 8.99L145.95 8.99Q146.53 8.49 147.44 8.29L147.44 8.29L147.44 8.29Q148.36 8.09 149.67 8.09L149.67 8.09L149.67 8.09Q150.61 8.09 151.30 8.23L151.30 8.23L151.30 8.23Q151.98 8.37 152.47 8.63L152.47 8.63L152.47 8.63Q152.96 8.89 153.27 9.26L153.27 9.26L153.27 9.26Q153.57 9.63 153.74 10.03L153.74 10.03L153.74 10.03Q153.92 10.44 153.98 10.99L153.98 10.99L153.98 10.99Q154.05 11.53 154.05 12.14L154.05 12.14L153.94 12.58L146.17 12.58L146.17 12.58Q146.17 13.48 146.35 14.06L146.35 14.06L146.35 14.06Q146.53 14.64 146.94 14.90L146.94 14.90L146.94 14.90Q147.35 15.17 148.02 15.24L148.02 15.24L148.02 15.24Q148.69 15.31 149.67 15.31L149.67 15.31L149.67 15.31Q150.58 15.31 151.17 15.26L151.17 15.26L151.17 15.26Q151.76 15.21 152.11 15.07L152.11 15.07L152.11 15.07Q152.46 14.92 152.60 14.67L152.60 14.67L152.60 14.67Q152.74 14.41 152.74 14L152.74 14L154.05 14L154.05 14Q154.05 14.64 153.83 15.08L153.83 15.08L153.83 15.08Q153.60 15.53 153.09 15.81L153.09 15.81L153.09 15.81Q152.58 16.08 151.74 16.21L151.74 16.21L151.74 16.21Q150.90 16.34 149.67 16.34ZM149.67 9.19L149.67 9.19L149.67 9.19Q149.02 9.19 148.50 9.21L148.50 9.21L148.50 9.21Q147.98 9.24 147.60 9.33L147.60 9.33L147.60 9.33Q147.21 9.43 146.94 9.60L146.94 9.60L146.94 9.60Q146.67 9.78 146.50 10.01L146.50 10.01L146.50 10.01Q146.33 10.25 146.25 10.67L146.25 10.67L146.25 10.67Q146.17 11.10 146.17 11.70L146.17 11.70L152.74 11.70L152.74 11.70Q152.74 10.90 152.56 10.45L152.56 10.45L152.56 10.45Q152.39 9.99 152.02 9.70L152.02 9.70L152.02 9.70Q151.66 9.41 151.07 9.30L151.07 9.30L151.07 9.30Q150.49 9.19 149.67 9.19ZM163.67 10.88L162.58 10.88L162.58 10.88Q162.58 10.38 162.51 10.06L162.51 10.06L162.51 10.06Q162.44 9.73 162.17 9.54L162.17 9.54L162.17 9.54Q161.90 9.34 161.38 9.27L161.38 9.27L161.38 9.27Q160.86 9.19 159.95 9.19L159.95 9.19L159.95 9.19Q159.07 9.19 158.52 9.34L158.52 9.34L158.52 9.34Q157.96 9.50 157.65 9.78L157.65 9.78L157.65 9.78Q157.34 10.06 157.22 10.45L157.22 10.45L157.22 10.45Q157.11 10.83 157.11 11.31L157.11 11.31L157.11 16.19L155.80 16.19L155.80 8.31L157.11 8.31L157.11 9.56L157.11 9.56Q157.18 9.35 157.36 9.10L157.36 9.10L157.36 9.10Q157.55 8.84 157.92 8.62L157.92 8.62L157.92 8.62Q158.30 8.39 158.90 8.24L158.90 8.24L158.90 8.24Q159.50 8.09 160.39 8.09L160.39 8.09L160.39 8.09Q161.42 8.09 162.06 8.27L162.06 8.27L162.06 8.27Q162.70 8.46 163.06 8.81L163.06 8.81L163.06 8.81Q163.42 9.16 163.55 9.68L163.55 9.68L163.55 9.68Q163.67 10.20 163.67 10.88L163.67 10.88Z"></path></g><defs data-v-fde0c5aa=""><!----></defs><g data-v-fde0c5aa="" id="2da1ce7b-9ca8-473d-8999-be5be4b72b3f" stroke="none" fill="#ffffff" transform="matrix(3.5604005283310265,0,0,3.5604005283310265,121.51679577335179,101.8355941883587)"><path d="M7.969 2L6 13.844 5.969 14h2.063l1.969-11.844.031-.156H7.969zM5 3.813l-.531.344-4 2.5L0 6.938v2.126l.469.281 4 2.5.531.344V9.814L2.094 8.001 5 6.188V3.813zm6 0v2.375l2.906 1.813L11 9.814v2.375l.531-.344 4-2.5.469-.281V6.938l-.469-.281-4-2.5L11 3.813z"></path></g><!----></svg>